<?xml version="1.0" encoding="UTF-8" standalone="no"?>
<!DOCTYPE svg PUBLIC "-//W3C//DTD SVG 1.1//EN" "http://www.w3.org/Graphics/SVG/1.1/DTD/svg11.dtd">
<svg width="100%" height="100%" viewBox="0 0 780 350" version="1.1" xmlns="http://www.w3.org/2000/svg" xmlns:xlink="http://www.w3.org/1999/xlink" xml:space="preserve" xmlns:serif="http://www.serif.com/" style="fill-rule:evenodd;clip-rule:evenodd;stroke-linejoin:round;stroke-miterlimit:2;">
    <g transform="matrix(1,0,0,1,-722.194,-1134.85)">
        <g transform="matrix(4.16667,0,0,4.16667,0,0)">
            <g transform="matrix(0,-1,-1,0,215.119,308.912)">
                <path d="M-5.303,-5.303C-8.232,-5.303 -10.606,-2.929 -10.606,0C-10.606,2.928 -8.232,5.303 -5.303,5.303C-2.374,5.303 0,2.928 0,0C0,-2.929 -2.374,-5.303 -5.303,-5.303" style="fill:rgb(27,60,109);fill-rule:nonzero;"/>
            </g>
        </g>
        <g transform="matrix(4.16667,0,0,4.16667,0,0)">
            <g transform="matrix(-0.707107,-0.707107,-0.707107,0.707107,211.49,294.242)">
                <path d="M-2.643,-6.38C-4.706,-6.38 -6.379,-4.707 -6.38,-2.643C-6.38,-0.579 -4.707,1.094 -2.643,1.095C-0.578,1.094 1.095,-0.579 1.095,-2.643C1.094,-4.707 -0.579,-6.38 -2.643,-6.38" style="fill:rgb(27,60,109);fill-rule:nonzero;"/>
            </g>
        </g>
        <g transform="matrix(4.16667,0,0,4.16667,0,0)">
            <g transform="matrix(-0.707107,-0.707107,-0.707107,0.707107,231.451,314.284)">
                <path d="M-2.643,-6.38C-4.706,-6.38 -6.379,-4.707 -6.38,-2.643C-6.38,-0.579 -4.707,1.094 -2.643,1.095C-0.578,1.094 1.095,-0.579 1.095,-2.643C1.094,-4.707 -0.579,-6.38 -2.643,-6.38" style="fill:rgb(27,60,109);fill-rule:nonzero;"/>
            </g>
        </g>
        <g transform="matrix(4.16667,0,0,4.16667,0,0)">
            <g transform="matrix(-0.707107,-0.707107,-0.707107,0.707107,211.49,334.371)">
                <path d="M-2.643,-6.38C-4.706,-6.38 -6.379,-4.707 -6.38,-2.643C-6.38,-0.579 -4.707,1.094 -2.643,1.095C-0.578,1.094 1.095,-0.579 1.095,-2.643C1.094,-4.707 -0.579,-6.38 -2.643,-6.38" style="fill:rgb(27,60,109);fill-rule:nonzero;"/>
            </g>
        </g>
        <g transform="matrix(4.16667,0,0,4.16667,0,0)">
            <g transform="matrix(-0.707107,-0.707107,-0.707107,0.707107,191.413,314.284)">
                <path d="M-2.643,-6.38C-4.706,-6.38 -6.379,-4.707 -6.38,-2.643C-6.38,-0.579 -4.707,1.094 -2.643,1.095C-0.578,1.094 1.095,-0.579 1.095,-2.643C1.094,-4.707 -0.579,-6.38 -2.643,-6.38" style="fill:rgb(27,60,109);fill-rule:nonzero;"/>
            </g>
        </g>
        <g transform="matrix(4.16667,0,0,4.16667,0,0)">
            <g transform="matrix(0,-1,-1,0,215.195,272.363)">
                <path d="M-1.869,-1.869C-2.901,-1.869 -3.737,-1.031 -3.737,-0C-3.737,1.031 -2.901,1.869 -1.869,1.869C-0.837,1.869 -0,1.031 -0,-0C-0,-1.031 -0.837,-1.869 -1.869,-1.869" style="fill:rgb(27,60,109);fill-rule:nonzero;"/>
            </g>
        </g>
        <g transform="matrix(4.16667,0,0,4.16667,0,0)">
            <g transform="matrix(0,-1,-1,0,215.195,352.407)">
                <path d="M-1.869,-1.869C-2.901,-1.869 -3.737,-1.031 -3.737,-0C-3.737,1.031 -2.901,1.869 -1.869,1.869C-0.837,1.869 -0,1.031 -0,-0C-0,-1.031 -0.837,-1.869 -1.869,-1.869" style="fill:rgb(27,60,109);fill-rule:nonzero;"/>
            </g>
        </g>
        <g transform="matrix(4.16667,0,0,4.16667,0,0)">
            <g transform="matrix(0,-1,-1,0,195.165,292.393)">
                <path d="M-1.869,-1.869C-2.901,-1.869 -3.737,-1.031 -3.737,-0C-3.737,1.031 -2.901,1.869 -1.869,1.869C-0.837,1.869 -0,1.031 -0,-0C-0,-1.031 -0.837,-1.869 -1.869,-1.869" style="fill:rgb(27,60,109);fill-rule:nonzero;"/>
            </g>
        </g>
        <g transform="matrix(4.16667,0,0,4.16667,0,0)">
            <g transform="matrix(0,-1,-1,0,175.195,312.362)">
                <path d="M-1.869,-1.869C-2.901,-1.869 -3.737,-1.031 -3.737,-0C-3.737,1.031 -2.901,1.869 -1.869,1.869C-0.837,1.869 -0,1.031 -0,-0C-0,-1.031 -0.837,-1.869 -1.869,-1.869" style="fill:rgb(27,60,109);fill-rule:nonzero;"/>
            </g>
        </g>
        <g transform="matrix(4.16667,0,0,4.16667,0,0)">
            <g transform="matrix(0,-1,-1,0,195.225,332.392)">
                <path d="M-1.869,-1.869C-2.901,-1.869 -3.737,-1.031 -3.737,-0C-3.737,1.031 -2.901,1.869 -1.869,1.869C-0.837,1.869 -0,1.031 -0,-0C-0,-1.031 -0.837,-1.869 -1.869,-1.869" style="fill:rgb(27,60,109);fill-rule:nonzero;"/>
            </g>
        </g>
        <g transform="matrix(4.16667,0,0,4.16667,0,0)">
            <g transform="matrix(0,-1,-1,0,255.179,312.423)">
                <path d="M-1.869,-1.869C-2.901,-1.869 -3.737,-1.031 -3.737,-0C-3.737,1.031 -2.901,1.869 -1.869,1.869C-0.837,1.869 -0,1.031 -0,-0C-0,-1.031 -0.837,-1.869 -1.869,-1.869" style="fill:rgb(27,60,109);fill-rule:nonzero;"/>
            </g>
        </g>
        <g transform="matrix(4.16667,0,0,4.16667,0,0)">
            <g transform="matrix(0,-1,-1,0,235.172,332.429)">
                <path d="M-1.869,-1.869C-2.901,-1.869 -3.737,-1.031 -3.737,-0C-3.737,1.031 -2.901,1.869 -1.869,1.869C-0.837,1.869 -0,1.031 -0,-0C-0,-1.031 -0.837,-1.869 -1.869,-1.869" style="fill:rgb(27,60,109);fill-rule:nonzero;"/>
            </g>
        </g>
        <g transform="matrix(4.16667,0,0,4.16667,0,0)">
            <g transform="matrix(0,-1,-1,0,235.223,292.467)">
                <path d="M-1.869,-1.869C-2.901,-1.869 -3.737,-1.031 -3.737,-0C-3.737,1.031 -2.901,1.869 -1.869,1.869C-0.837,1.869 -0,1.031 -0,-0C-0,-1.031 -0.837,-1.869 -1.869,-1.869" style="fill:rgb(27,60,109);fill-rule:nonzero;"/>
            </g>
        </g>
        <g transform="matrix(4.16667,0,0,4.16667,0,0)">
            <g transform="matrix(1.07659,0,0,1,-19.5954,0)">
                <g transform="matrix(44,0,0,44,264.158,330.634)">
                    <path d="M0.309,-0.018L0.309,-0L0.025,-0L0.025,-0.018L0.048,-0.018C0.076,-0.018 0.096,-0.026 0.108,-0.042C0.116,-0.052 0.12,-0.077 0.12,-0.117L0.12,-0.545C0.12,-0.578 0.118,-0.601 0.113,-0.611C0.11,-0.619 0.103,-0.626 0.093,-0.632C0.079,-0.64 0.064,-0.644 0.048,-0.644L0.025,-0.644L0.025,-0.662L0.309,-0.662L0.309,-0.644L0.285,-0.644C0.258,-0.644 0.238,-0.636 0.226,-0.62C0.217,-0.61 0.213,-0.585 0.213,-0.545L0.213,-0.117C0.213,-0.084 0.215,-0.062 0.22,-0.051C0.223,-0.043 0.23,-0.036 0.24,-0.03C0.254,-0.022 0.269,-0.018 0.285,-0.018L0.309,-0.018Z" style="fill:rgb(27,60,109);fill-rule:nonzero;"/>
                </g>
                <g transform="matrix(44,0,0,44,277.684,330.634)">
                    <path d="M0.579,-0.662L0.586,-0.507L0.567,-0.507C0.564,-0.534 0.559,-0.554 0.553,-0.565C0.543,-0.584 0.529,-0.598 0.512,-0.607C0.496,-0.616 0.474,-0.621 0.446,-0.621L0.353,-0.621L0.353,-0.115C0.353,-0.074 0.357,-0.049 0.366,-0.039C0.379,-0.025 0.398,-0.018 0.423,-0.018L0.446,-0.018L0.446,-0L0.166,-0L0.166,-0.018L0.189,-0.018C0.217,-0.018 0.237,-0.027 0.249,-0.043C0.256,-0.054 0.259,-0.078 0.259,-0.115L0.259,-0.621L0.18,-0.621C0.149,-0.621 0.127,-0.618 0.114,-0.614C0.097,-0.608 0.082,-0.596 0.07,-0.578C0.058,-0.561 0.051,-0.537 0.049,-0.507L0.03,-0.507L0.038,-0.662L0.579,-0.662Z" style="fill:rgb(27,60,109);fill-rule:nonzero;"/>
                </g>
                <g transform="matrix(44,0,0,44,302.554,330.634)">
                    <path d="M0.602,-0.677L0.617,-0.452L0.602,-0.452C0.582,-0.52 0.553,-0.568 0.516,-0.598C0.478,-0.627 0.433,-0.642 0.381,-0.642C0.337,-0.642 0.297,-0.631 0.262,-0.609C0.226,-0.586 0.198,-0.551 0.178,-0.502C0.158,-0.453 0.147,-0.392 0.147,-0.32C0.147,-0.26 0.157,-0.208 0.176,-0.164C0.195,-0.12 0.224,-0.086 0.263,-0.063C0.302,-0.04 0.346,-0.028 0.395,-0.028C0.438,-0.028 0.476,-0.037 0.509,-0.055C0.542,-0.074 0.578,-0.11 0.617,-0.165L0.632,-0.155C0.599,-0.096 0.56,-0.053 0.516,-0.026C0.472,0.001 0.419,0.015 0.358,0.015C0.249,0.015 0.164,-0.026 0.104,-0.107C0.059,-0.167 0.036,-0.239 0.036,-0.321C0.036,-0.387 0.051,-0.448 0.081,-0.503C0.11,-0.558 0.151,-0.601 0.203,-0.632C0.255,-0.662 0.312,-0.677 0.373,-0.677C0.421,-0.677 0.468,-0.666 0.515,-0.642C0.528,-0.635 0.538,-0.631 0.544,-0.631C0.553,-0.631 0.56,-0.634 0.567,-0.641C0.575,-0.649 0.581,-0.662 0.585,-0.677L0.602,-0.677Z" style="fill:rgb(27,60,109);fill-rule:nonzero;"/>
                </g>
                <g transform="matrix(44,0,0,44,330.334,330.634)">
                    <path d="M0.205,-0.626L0.205,-0.366L0.325,-0.366C0.353,-0.366 0.373,-0.372 0.386,-0.384C0.399,-0.396 0.407,-0.42 0.412,-0.457L0.43,-0.457L0.43,-0.232L0.412,-0.232C0.411,-0.258 0.408,-0.277 0.402,-0.289C0.395,-0.301 0.386,-0.31 0.375,-0.316C0.364,-0.322 0.347,-0.325 0.325,-0.325L0.205,-0.325L0.205,-0.117C0.205,-0.084 0.207,-0.062 0.211,-0.051C0.214,-0.043 0.221,-0.036 0.231,-0.03C0.246,-0.022 0.261,-0.018 0.276,-0.018L0.3,-0.018L0.3,-0L0.016,-0L0.016,-0.018L0.04,-0.018C0.067,-0.018 0.087,-0.026 0.099,-0.042C0.107,-0.052 0.111,-0.077 0.111,-0.117L0.111,-0.545C0.111,-0.578 0.109,-0.601 0.104,-0.611C0.101,-0.619 0.095,-0.626 0.084,-0.632C0.07,-0.64 0.056,-0.644 0.04,-0.644L0.016,-0.644L0.016,-0.662L0.509,-0.662L0.515,-0.517L0.498,-0.517C0.49,-0.548 0.48,-0.57 0.469,-0.585C0.457,-0.599 0.443,-0.61 0.427,-0.616C0.411,-0.623 0.385,-0.626 0.351,-0.626L0.205,-0.626Z" style="fill:rgb(27,60,109);fill-rule:nonzero;"/>
                </g>
            </g>
        </g>
    </g>
</svg>
