<?xml version="1.0" encoding="UTF-8" standalone="no"?>
<svg
   width="350"
   height="350"
   viewBox="0 0 350 350"
   version="1.1"
   xml:space="preserve"
   style="clip-rule:evenodd;fill-rule:evenodd;stroke-linejoin:round;stroke-miterlimit:2"
   id="svg33"
   xmlns:xlink="http://www.w3.org/1999/xlink"
   xmlns="http://www.w3.org/2000/svg"
   xmlns:svg="http://www.w3.org/2000/svg"><defs
   id="defs33"><linearGradient
     id="linearGradient34"><stop
       style="stop-color:#4e4e4e;stop-opacity:1;"
       offset="0"
       id="stop34" /><stop
       style="stop-color:#4e4e4e;stop-opacity:0.52156863;"
       offset="0.6678766"
       id="stop36" /><stop
       style="stop-color:#4e4e4e;stop-opacity:0;"
       offset="1"
       id="stop35" /></linearGradient><radialGradient
     xlink:href="#linearGradient34"
     id="radialGradient35"
     cx="398.16025"
     cy="63.952019"
     fx="398.16025"
     fy="63.952019"
     r="151.15681"
     gradientUnits="userSpaceOnUse"
     gradientTransform="translate(-212.33933,123.56469)" /></defs>
    <circle
   style="clip-rule:evenodd;fill:url(#radialGradient35);fill-rule:evenodd;stroke:none;stroke-linejoin:round;stroke-miterlimit:2"
   id="path33-9"
   cx="185.82091"
   cy="187.51671"
   r="151.15681" /><circle
   style="clip-rule:evenodd;fill:#ffffff;fill-rule:evenodd;stroke:none;stroke-linejoin:round;stroke-miterlimit:2"
   id="path33"
   cx="175.14995"
   cy="174.35132"
   r="151.15681" /><g
   transform="matrix(0.65610293,0,0,0.65610293,-413.85134,-686.95372)"
   id="g33">
        <g
   transform="scale(4.16667)"
   id="g2">
            <g
   transform="matrix(0,-1,-1,0,215.119,308.912)"
   id="g1">
                <path
   d="m -5.303,-5.303 c -2.929,0 -5.303,2.374 -5.303,5.303 0,2.928 2.374,5.303 5.303,5.303 C -2.374,5.303 0,2.928 0,0 0,-2.929 -2.374,-5.303 -5.303,-5.303"
   style="fill:#1b3c6d;fill-rule:nonzero"
   id="path1" />
            </g>
        </g>
        <g
   transform="scale(4.16667)"
   id="g4">
            <g
   transform="matrix(-0.707107,-0.707107,-0.707107,0.707107,211.49,294.242)"
   id="g3">
                <path
   d="m -2.643,-6.38 c -2.063,0 -3.736,1.673 -3.737,3.737 0,2.064 1.673,3.737 3.737,3.738 C -0.578,1.094 1.095,-0.579 1.095,-2.643 1.094,-4.707 -0.579,-6.38 -2.643,-6.38"
   style="fill:#1b3c6d;fill-rule:nonzero"
   id="path2" />
            </g>
        </g>
        <g
   transform="scale(4.16667)"
   id="g6">
            <g
   transform="matrix(-0.707107,-0.707107,-0.707107,0.707107,231.451,314.284)"
   id="g5">
                <path
   d="m -2.643,-6.38 c -2.063,0 -3.736,1.673 -3.737,3.737 0,2.064 1.673,3.737 3.737,3.738 C -0.578,1.094 1.095,-0.579 1.095,-2.643 1.094,-4.707 -0.579,-6.38 -2.643,-6.38"
   style="fill:#1b3c6d;fill-rule:nonzero"
   id="path4" />
            </g>
        </g>
        <g
   transform="scale(4.16667)"
   id="g8">
            <g
   transform="matrix(-0.707107,-0.707107,-0.707107,0.707107,211.49,334.371)"
   id="g7">
                <path
   d="m -2.643,-6.38 c -2.063,0 -3.736,1.673 -3.737,3.737 0,2.064 1.673,3.737 3.737,3.738 C -0.578,1.094 1.095,-0.579 1.095,-2.643 1.094,-4.707 -0.579,-6.38 -2.643,-6.38"
   style="fill:#1b3c6d;fill-rule:nonzero"
   id="path6" />
            </g>
        </g>
        <g
   transform="scale(4.16667)"
   id="g10">
            <g
   transform="matrix(-0.707107,-0.707107,-0.707107,0.707107,191.413,314.284)"
   id="g9">
                <path
   d="m -2.643,-6.38 c -2.063,0 -3.736,1.673 -3.737,3.737 0,2.064 1.673,3.737 3.737,3.738 C -0.578,1.094 1.095,-0.579 1.095,-2.643 1.094,-4.707 -0.579,-6.38 -2.643,-6.38"
   style="fill:#1b3c6d;fill-rule:nonzero"
   id="path8" />
            </g>
        </g>
        <g
   transform="scale(4.16667)"
   id="g12">
            <g
   transform="matrix(0,-1,-1,0,215.195,272.363)"
   id="g11">
                <path
   d="m -1.869,-1.869 c -1.032,0 -1.868,0.838 -1.868,1.869 0,1.031 0.836,1.869 1.868,1.869 C -0.837,1.869 0,1.031 0,0 0,-1.031 -0.837,-1.869 -1.869,-1.869"
   style="fill:#1b3c6d;fill-rule:nonzero"
   id="path10" />
            </g>
        </g>
        <g
   transform="scale(4.16667)"
   id="g14">
            <g
   transform="matrix(0,-1,-1,0,215.195,352.407)"
   id="g13">
                <path
   d="m -1.869,-1.869 c -1.032,0 -1.868,0.838 -1.868,1.869 0,1.031 0.836,1.869 1.868,1.869 C -0.837,1.869 0,1.031 0,0 0,-1.031 -0.837,-1.869 -1.869,-1.869"
   style="fill:#1b3c6d;fill-rule:nonzero"
   id="path12" />
            </g>
        </g>
        <g
   transform="scale(4.16667)"
   id="g16">
            <g
   transform="matrix(0,-1,-1,0,195.165,292.393)"
   id="g15">
                <path
   d="m -1.869,-1.869 c -1.032,0 -1.868,0.838 -1.868,1.869 0,1.031 0.836,1.869 1.868,1.869 C -0.837,1.869 0,1.031 0,0 0,-1.031 -0.837,-1.869 -1.869,-1.869"
   style="fill:#1b3c6d;fill-rule:nonzero"
   id="path14" />
            </g>
        </g>
        <g
   transform="scale(4.16667)"
   id="g18">
            <g
   transform="matrix(0,-1,-1,0,175.195,312.362)"
   id="g17">
                <path
   d="m -1.869,-1.869 c -1.032,0 -1.868,0.838 -1.868,1.869 0,1.031 0.836,1.869 1.868,1.869 C -0.837,1.869 0,1.031 0,0 0,-1.031 -0.837,-1.869 -1.869,-1.869"
   style="fill:#1b3c6d;fill-rule:nonzero"
   id="path16" />
            </g>
        </g>
        <g
   transform="scale(4.16667)"
   id="g20">
            <g
   transform="matrix(0,-1,-1,0,195.225,332.392)"
   id="g19">
                <path
   d="m -1.869,-1.869 c -1.032,0 -1.868,0.838 -1.868,1.869 0,1.031 0.836,1.869 1.868,1.869 C -0.837,1.869 0,1.031 0,0 0,-1.031 -0.837,-1.869 -1.869,-1.869"
   style="fill:#1b3c6d;fill-rule:nonzero"
   id="path18" />
            </g>
        </g>
        <g
   transform="scale(4.16667)"
   id="g22">
            <g
   transform="matrix(0,-1,-1,0,255.179,312.423)"
   id="g21">
                <path
   d="m -1.869,-1.869 c -1.032,0 -1.868,0.838 -1.868,1.869 0,1.031 0.836,1.869 1.868,1.869 C -0.837,1.869 0,1.031 0,0 0,-1.031 -0.837,-1.869 -1.869,-1.869"
   style="fill:#1b3c6d;fill-rule:nonzero"
   id="path20" />
            </g>
        </g>
        <g
   transform="scale(4.16667)"
   id="g24">
            <g
   transform="matrix(0,-1,-1,0,235.172,332.429)"
   id="g23">
                <path
   d="m -1.869,-1.869 c -1.032,0 -1.868,0.838 -1.868,1.869 0,1.031 0.836,1.869 1.868,1.869 C -0.837,1.869 0,1.031 0,0 0,-1.031 -0.837,-1.869 -1.869,-1.869"
   style="fill:#1b3c6d;fill-rule:nonzero"
   id="path22" />
            </g>
        </g>
        <g
   transform="scale(4.16667)"
   id="g26">
            <g
   transform="matrix(0,-1,-1,0,235.223,292.467)"
   id="g25">
                <path
   d="m -1.869,-1.869 c -1.032,0 -1.868,0.838 -1.868,1.869 0,1.031 0.836,1.869 1.868,1.869 C -0.837,1.869 0,1.031 0,0 0,-1.031 -0.837,-1.869 -1.869,-1.869"
   style="fill:#1b3c6d;fill-rule:nonzero"
   id="path24" />
            </g>
        </g>
        
    </g>
</svg>
